<svg xmlns="http://www.w3.org/2000/svg" xmlns:xlink="http://www.w3.org/1999/xlink" width="500" zoomAndPan="magnify" viewBox="0 0 375 374.999991" height="500" preserveAspectRatio="xMidYMid meet" version="1.0"><defs><clipPath id="e46b3682e8"><path d="M 69.085938 183 L 229 183 L 229 295.902344 L 69.085938 295.902344 Z M 69.085938 183 " clip-rule="nonzero"/></clipPath><clipPath id="ac3bc11678"><path d="M 92 79.152344 L 261 79.152344 L 261 248 L 92 248 Z M 92 79.152344 " clip-rule="nonzero"/></clipPath></defs><rect x="-37.5" width="450" fill="#ffffff" y="-37.499999" height="449.999989" fill-opacity="1"/><rect x="-37.5" width="450" fill="#076cfa" y="-37.499999" height="449.999989" fill-opacity="1"/><path fill="#00266f" d="M 253.503906 245.453125 C 249.707031 248.726562 243.957031 248.300781 240.683594 244.503906 C 237.410156 240.703125 237.835938 234.953125 241.632812 231.683594 C 245.433594 228.40625 251.179688 228.832031 254.453125 232.632812 C 257.730469 236.429688 257.304688 242.179688 253.503906 245.453125 Z M 254.519531 244.578125 C 254.621094 244.492188 254.632812 244.480469 254.519531 244.578125 Z M 304.613281 131.039062 C 303.679688 126.078125 302.066406 121.15625 299.683594 116.585938 C 299.378906 116.011719 299.132812 115.4375 298.773438 114.863281 L 297.71875 113.152344 L 297.191406 112.300781 L 296.925781 111.875 L 296.664062 111.507812 L 295.601562 110.066406 L 295.074219 109.34375 L 294.722656 108.867188 L 294.40625 108.503906 L 293.140625 107.039062 C 292.707031 106.558594 292.316406 106.050781 291.851562 105.597656 L 290.46875 104.253906 C 286.761719 100.679688 282.496094 97.765625 277.984375 95.519531 C 273.46875 93.277344 268.722656 91.664062 263.945312 90.605469 C 259.160156 89.558594 254.355469 89.015625 249.621094 88.800781 C 244.886719 88.578125 240.226562 88.835938 235.679688 89.21875 C 226.589844 90.144531 217.964844 91.949219 210.015625 94.339844 C 208.726562 94.722656 207.457031 95.121094 206.203125 95.53125 L 206.203125 98.585938 C 207.726562 98.160156 209.265625 97.738281 210.835938 97.347656 C 218.71875 95.347656 227.210938 93.96875 235.992188 93.464844 C 240.382812 93.285156 244.851562 93.238281 249.324219 93.648438 C 253.792969 94.046875 258.269531 94.761719 262.640625 95.917969 C 271.347656 98.257812 279.625 102.566406 285.710938 109 L 286.84375 110.207031 C 287.222656 110.605469 287.539062 111.0625 287.890625 111.488281 L 288.917969 112.78125 L 289.144531 113.0625 C 289.148438 113.074219 289.15625 113.082031 289.152344 113.078125 L 289.214844 113.171875 L 289.339844 113.355469 L 290.832031 115.589844 L 291.078125 115.964844 L 291.261719 116.308594 L 291.640625 117 L 292.398438 118.375 C 292.660156 118.816406 292.859375 119.355469 293.09375 119.839844 C 294.9375 123.804688 296.128906 128.046875 296.746094 132.359375 C 297.363281 136.675781 297.421875 141.058594 297.078125 145.378906 C 296.714844 149.703125 295.902344 153.957031 294.859375 158.082031 C 293.828125 162.210938 292.449219 166.207031 290.929688 170.046875 C 289.445312 173.898438 287.65625 177.558594 285.886719 181.085938 C 282.21875 188.105469 278.164062 194.445312 274.101562 200.070312 C 270.039062 205.695312 265.960938 210.609375 262.210938 214.828125 C 261.257812 215.875 260.339844 216.886719 259.449219 217.859375 C 258.554688 218.832031 257.65625 219.734375 256.8125 220.621094 C 255.140625 222.402344 253.503906 223.949219 252.066406 225.378906 C 251.460938 225.957031 250.886719 226.503906 250.332031 227.027344 C 246.746094 226.175781 242.8125 226.984375 239.8125 229.570312 C 234.851562 233.84375 234.292969 241.363281 238.574219 246.324219 C 242.847656 251.285156 250.367188 251.84375 255.328125 247.566406 C 258.617188 244.730469 259.957031 240.46875 259.25 236.476562 C 259.875 235.828125 260.535156 235.144531 261.226562 234.417969 C 262.6875 232.835938 264.34375 231.121094 266.039062 229.152344 C 266.894531 228.171875 267.804688 227.175781 268.707031 226.101562 C 269.605469 225.023438 270.535156 223.910156 271.496094 222.757812 C 275.285156 218.097656 279.382812 212.6875 283.449219 206.503906 C 287.515625 200.316406 291.554688 193.351562 295.167969 185.628906 C 296.90625 181.734375 298.65625 177.710938 300.09375 173.445312 C 301.5625 169.195312 302.875 164.773438 303.8125 160.160156 C 304.765625 155.554688 305.460938 150.789062 305.652344 145.898438 C 305.832031 141.011719 305.550781 136.007812 304.613281 131.039062 " fill-opacity="1" fill-rule="nonzero"/><path fill="#ffffff" d="M 208.835938 253.054688 C 209.035156 252.921875 209.261719 252.773438 209.539062 252.585938 C 209.296875 252.746094 209.054688 252.910156 208.835938 253.054688 " fill-opacity="1" fill-rule="nonzero"/><g clip-path="url(#e46b3682e8)"><path fill="#ffffff" d="M 221.183594 270.027344 C 217.015625 272.808594 211.359375 271.683594 208.578125 267.515625 C 205.792969 263.34375 206.921875 257.6875 211.089844 254.902344 C 215.257812 252.121094 220.914062 253.246094 223.699219 257.417969 C 226.480469 261.589844 225.355469 267.242188 221.183594 270.027344 Z M 226.019531 255.871094 C 222.382812 250.421875 214.988281 248.949219 209.542969 252.582031 C 209.921875 252.332031 210.296875 252.082031 210.585938 251.886719 C 210.339844 252.050781 210.003906 252.273438 209.539062 252.585938 C 206.246094 254.785156 204.417969 258.355469 204.28125 262.039062 C 203.648438 262.421875 202.988281 262.816406 202.285156 263.234375 C 200.53125 264.234375 198.617188 265.390625 196.460938 266.523438 C 195.386719 267.09375 194.28125 267.71875 193.117188 268.316406 C 191.945312 268.910156 190.730469 269.527344 189.476562 270.160156 C 184.433594 272.636719 178.644531 275.238281 172.167969 277.644531 C 165.699219 280.046875 158.542969 282.25 150.84375 283.90625 C 146.992188 284.671875 143.011719 285.414062 138.921875 285.816406 C 138.410156 285.875 137.898438 285.933594 137.386719 285.996094 C 136.871094 286.035156 136.355469 286.074219 135.839844 286.113281 C 134.804688 286.183594 133.765625 286.28125 132.722656 286.332031 C 130.636719 286.398438 128.523438 286.488281 126.410156 286.421875 C 122.175781 286.335938 117.878906 286.003906 113.640625 285.195312 C 109.40625 284.394531 105.214844 283.1875 101.234375 281.460938 C 97.257812 279.738281 93.496094 277.484375 90.167969 274.683594 C 86.832031 271.878906 83.972656 268.570312 81.632812 264.71875 L 80.808594 263.371094 L 80.066406 261.898438 L 79.328125 260.417969 C 79.089844 259.921875 78.90625 259.394531 78.695312 258.886719 L 78.070312 257.34375 C 77.851562 256.835938 77.726562 256.292969 77.546875 255.765625 C 77.226562 254.703125 76.84375 253.65625 76.628906 252.558594 C 75.5625 248.234375 75.035156 243.742188 75.058594 239.246094 C 75.070312 234.75 75.542969 230.265625 76.3125 225.871094 C 77.085938 221.472656 78.277344 217.191406 79.585938 213.019531 C 82.355469 204.714844 85.878906 196.921875 89.84375 189.867188 C 90.554688 188.59375 91.28125 187.351562 92.011719 186.121094 C 91.347656 185.296875 90.753906 184.414062 90.242188 183.484375 C 89.203125 185.046875 88.167969 186.648438 87.15625 188.292969 C 82.796875 195.304688 78.824219 203.121094 75.570312 211.609375 C 74.019531 215.878906 72.582031 220.292969 71.554688 224.898438 C 70.535156 229.5 69.820312 234.257812 69.589844 239.128906 C 69.152344 248.847656 70.835938 259.078125 75.882812 268.203125 C 78.292969 272.589844 81.527344 276.738281 85.300781 280.195312 C 89.070312 283.667969 93.371094 286.503906 97.886719 288.699219 C 102.40625 290.90625 107.132812 292.488281 111.867188 293.605469 C 116.609375 294.722656 121.367188 295.300781 126.035156 295.605469 C 128.371094 295.78125 130.683594 295.789062 132.976562 295.8125 C 134.121094 295.804688 135.257812 295.753906 136.390625 295.726562 C 136.957031 295.707031 137.519531 295.6875 138.082031 295.671875 C 138.644531 295.632812 139.203125 295.59375 139.761719 295.554688 C 144.234375 295.304688 148.554688 294.699219 152.75 294.058594 C 161.109375 292.644531 168.863281 290.621094 175.871094 288.367188 C 182.886719 286.109375 189.160156 283.613281 194.632812 281.222656 C 195.992188 280.609375 197.3125 280.011719 198.582031 279.4375 C 199.851562 278.855469 201.050781 278.25 202.214844 277.691406 C 204.554688 276.589844 206.640625 275.457031 208.546875 274.476562 C 209.402344 274.019531 210.21875 273.578125 210.992188 273.15625 C 214.65625 274.910156 219.121094 274.757812 222.734375 272.347656 C 228.179688 268.707031 229.65625 261.316406 226.019531 255.871094 " fill-opacity="1" fill-rule="nonzero"/></g><g clip-path="url(#ac3bc11678)"><path fill="#ffffff" d="M 235.835938 138.277344 L 201.796875 138.277344 L 201.796875 104.238281 C 201.796875 90.367188 190.554688 79.125 176.683594 79.125 C 162.816406 79.125 151.570312 90.367188 151.570312 104.238281 L 151.570312 138.277344 L 117.53125 138.277344 C 103.664062 138.277344 92.417969 149.519531 92.417969 163.390625 C 92.417969 177.261719 103.664062 188.503906 117.53125 188.503906 L 151.570312 188.503906 L 151.570312 222.539062 C 151.570312 236.410156 162.816406 247.65625 176.683594 247.65625 C 190.554688 247.65625 201.796875 236.410156 201.796875 222.539062 L 201.796875 188.503906 L 235.835938 188.503906 C 249.707031 188.503906 260.949219 177.261719 260.949219 163.390625 C 260.949219 149.519531 249.707031 138.277344 235.835938 138.277344 " fill-opacity="1" fill-rule="nonzero"/></g></svg>